<mxfile host="Electron" agent="Mozilla/5.0 (Windows NT 10.0; Win64; x64) AppleWebKit/537.36 (KHTML, like Gecko) draw.io/28.0.6 Chrome/138.0.7204.100 Electron/37.2.3 Safari/537.36" version="28.0.6">
  <diagram name="Page-1" id="2O3NK8djsQvvX_5-PqL8">
    <mxGraphModel dx="772" dy="501" grid="1" gridSize="10" guides="1" tooltips="1" connect="1" arrows="1" fold="1" page="1" pageScale="1" pageWidth="827" pageHeight="1169" math="0" shadow="0">
      <root>
        <mxCell id="0" />
        <mxCell id="1" parent="0" />
        <mxCell id="Kyk_j8IXvWQTDPvSbh4X-1" value="&lt;div&gt;&lt;br&gt;&lt;/div&gt;&lt;div&gt;CRM&lt;/div&gt;" style="rounded=0;whiteSpace=wrap;html=1;dashed=1;" vertex="1" parent="1">
          <mxGeometry x="210" y="210" width="100" height="380" as="geometry" />
        </mxCell>
        <mxCell id="Kyk_j8IXvWQTDPvSbh4X-2" value="Bronze Layer" style="rounded=0;whiteSpace=wrap;html=1;fillColor=light-dark(#F0A30A,#FCB21F);fontColor=#000000;strokeColor=#BD7000;fontStyle=1" vertex="1" parent="1">
          <mxGeometry x="390" y="170" width="120" height="20" as="geometry" />
        </mxCell>
        <mxCell id="Kyk_j8IXvWQTDPvSbh4X-3" value="Bronze Layer" style="rounded=0;whiteSpace=wrap;html=1;fillColor=none;fontColor=#000000;strokeColor=#BD7000;" vertex="1" parent="1">
          <mxGeometry x="370" y="210" width="160" height="380" as="geometry" />
        </mxCell>
        <mxCell id="Kyk_j8IXvWQTDPvSbh4X-4" value="" style="sketch=0;pointerEvents=1;shadow=0;dashed=0;html=1;strokeColor=#0e8088;fillColor=#b0e3e6;labelPosition=center;verticalLabelPosition=bottom;verticalAlign=top;outlineConnect=0;align=center;shape=mxgraph.office.users.csv_file;" vertex="1" parent="1">
          <mxGeometry x="248.33999999999997" y="345.38" width="50" height="30" as="geometry" />
        </mxCell>
        <mxCell id="Kyk_j8IXvWQTDPvSbh4X-19" value="" style="edgeStyle=orthogonalEdgeStyle;rounded=0;orthogonalLoop=1;jettySize=auto;html=1;entryX=0;entryY=0.5;entryDx=0;entryDy=0;" edge="1" parent="1" source="Kyk_j8IXvWQTDPvSbh4X-5" target="Kyk_j8IXvWQTDPvSbh4X-13">
          <mxGeometry relative="1" as="geometry">
            <Array as="points">
              <mxPoint x="333" y="332" />
            </Array>
          </mxGeometry>
        </mxCell>
        <mxCell id="Kyk_j8IXvWQTDPvSbh4X-24" style="edgeStyle=orthogonalEdgeStyle;rounded=0;orthogonalLoop=1;jettySize=auto;html=1;entryX=0;entryY=0.5;entryDx=0;entryDy=0;" edge="1" parent="1" source="Kyk_j8IXvWQTDPvSbh4X-5" target="Kyk_j8IXvWQTDPvSbh4X-14">
          <mxGeometry relative="1" as="geometry">
            <Array as="points">
              <mxPoint x="330" y="332" />
              <mxPoint x="330" y="365" />
            </Array>
          </mxGeometry>
        </mxCell>
        <mxCell id="Kyk_j8IXvWQTDPvSbh4X-5" value="" style="image;aspect=fixed;html=1;points=[];align=center;fontSize=12;image=img/lib/azure2/general/Folder_Blank.svg;" vertex="1" parent="1">
          <mxGeometry x="230" y="313.37" width="46.68" height="37.88" as="geometry" />
        </mxCell>
        <mxCell id="Kyk_j8IXvWQTDPvSbh4X-6" value="" style="sketch=0;pointerEvents=1;shadow=0;dashed=0;html=1;strokeColor=#0e8088;fillColor=#b0e3e6;labelPosition=center;verticalLabelPosition=bottom;verticalAlign=top;outlineConnect=0;align=center;shape=mxgraph.office.users.csv_file;" vertex="1" parent="1">
          <mxGeometry x="248.33999999999997" y="480" width="50" height="30" as="geometry" />
        </mxCell>
        <mxCell id="Kyk_j8IXvWQTDPvSbh4X-27" value="" style="edgeStyle=orthogonalEdgeStyle;rounded=0;orthogonalLoop=1;jettySize=auto;html=1;entryX=0;entryY=0.5;entryDx=0;entryDy=0;" edge="1" parent="1" source="Kyk_j8IXvWQTDPvSbh4X-7" target="Kyk_j8IXvWQTDPvSbh4X-16">
          <mxGeometry relative="1" as="geometry" />
        </mxCell>
        <mxCell id="Kyk_j8IXvWQTDPvSbh4X-28" style="edgeStyle=orthogonalEdgeStyle;rounded=0;orthogonalLoop=1;jettySize=auto;html=1;entryX=0;entryY=0.5;entryDx=0;entryDy=0;" edge="1" parent="1" source="Kyk_j8IXvWQTDPvSbh4X-7" target="Kyk_j8IXvWQTDPvSbh4X-15">
          <mxGeometry relative="1" as="geometry" />
        </mxCell>
        <mxCell id="Kyk_j8IXvWQTDPvSbh4X-29" style="edgeStyle=orthogonalEdgeStyle;rounded=0;orthogonalLoop=1;jettySize=auto;html=1;entryX=0;entryY=0.25;entryDx=0;entryDy=0;" edge="1" parent="1" source="Kyk_j8IXvWQTDPvSbh4X-7" target="Kyk_j8IXvWQTDPvSbh4X-17">
          <mxGeometry relative="1" as="geometry">
            <Array as="points">
              <mxPoint x="333" y="475" />
              <mxPoint x="333" y="507" />
            </Array>
          </mxGeometry>
        </mxCell>
        <mxCell id="Kyk_j8IXvWQTDPvSbh4X-7" value="" style="image;aspect=fixed;html=1;points=[];align=center;fontSize=12;image=img/lib/azure2/general/Folder_Blank.svg;" vertex="1" parent="1">
          <mxGeometry x="230" y="456.06" width="46.68" height="37.88" as="geometry" />
        </mxCell>
        <mxCell id="Kyk_j8IXvWQTDPvSbh4X-9" value="" style="html=1;verticalLabelPosition=bottom;align=center;labelBackgroundColor=#ffffff;verticalAlign=top;strokeWidth=2;strokeColor=#BD7000;shadow=0;dashed=0;shape=mxgraph.ios7.icons.data;fillColor=#f0a30a;fontColor=#000000;" vertex="1" parent="1">
          <mxGeometry x="438" y="240" width="24" height="29.099999999999998" as="geometry" />
        </mxCell>
        <mxCell id="Kyk_j8IXvWQTDPvSbh4X-12" value="crm_sales_details" style="rounded=1;whiteSpace=wrap;html=1;" vertex="1" parent="1">
          <mxGeometry x="390" y="282.5" width="120" height="27.5" as="geometry" />
        </mxCell>
        <mxCell id="Kyk_j8IXvWQTDPvSbh4X-13" value="crm_cust_info" style="rounded=1;whiteSpace=wrap;html=1;" vertex="1" parent="1">
          <mxGeometry x="390" y="317.88" width="120" height="27.5" as="geometry" />
        </mxCell>
        <mxCell id="Kyk_j8IXvWQTDPvSbh4X-14" value="crm_prd_info" style="rounded=1;whiteSpace=wrap;html=1;" vertex="1" parent="1">
          <mxGeometry x="390" y="351.25" width="120" height="27.5" as="geometry" />
        </mxCell>
        <mxCell id="Kyk_j8IXvWQTDPvSbh4X-15" value="erp_cust_az12" style="rounded=1;whiteSpace=wrap;html=1;" vertex="1" parent="1">
          <mxGeometry x="390" y="426.25" width="120" height="27.5" as="geometry" />
        </mxCell>
        <mxCell id="Kyk_j8IXvWQTDPvSbh4X-16" value="erp_loc_a101" style="rounded=1;whiteSpace=wrap;html=1;" vertex="1" parent="1">
          <mxGeometry x="390" y="461.25" width="120" height="27.5" as="geometry" />
        </mxCell>
        <mxCell id="Kyk_j8IXvWQTDPvSbh4X-17" value="erp_px_cat_g1v2" style="rounded=1;whiteSpace=wrap;html=1;" vertex="1" parent="1">
          <mxGeometry x="390" y="500" width="120" height="27.5" as="geometry" />
        </mxCell>
        <mxCell id="Kyk_j8IXvWQTDPvSbh4X-23" style="edgeStyle=orthogonalEdgeStyle;rounded=0;orthogonalLoop=1;jettySize=auto;html=1;entryX=0.125;entryY=0.237;entryDx=0;entryDy=0;entryPerimeter=0;" edge="1" parent="1" source="Kyk_j8IXvWQTDPvSbh4X-5" target="Kyk_j8IXvWQTDPvSbh4X-3">
          <mxGeometry relative="1" as="geometry">
            <Array as="points">
              <mxPoint x="330" y="332" />
              <mxPoint x="330" y="300" />
            </Array>
          </mxGeometry>
        </mxCell>
        <mxCell id="Kyk_j8IXvWQTDPvSbh4X-30" value="ERP" style="text;html=1;align=center;verticalAlign=middle;whiteSpace=wrap;rounded=0;" vertex="1" parent="1">
          <mxGeometry x="230" y="510" width="60" height="30" as="geometry" />
        </mxCell>
        <mxCell id="Kyk_j8IXvWQTDPvSbh4X-32" value="Sources" style="text;html=1;align=center;verticalAlign=middle;whiteSpace=wrap;rounded=0;" vertex="1" parent="1">
          <mxGeometry x="230" y="180" width="60" height="30" as="geometry" />
        </mxCell>
      </root>
    </mxGraphModel>
  </diagram>
</mxfile>
